# xmcd CD database file
#
# Track frame offsets:
#	150
#	12953
#	76698
#	105358
#	114937
#	134099
#	143331
#	192957
#	214428
#
# Disc length: 2987 seconds
#
# Revision: 0
# Processed by: cddbd v1.5.1PL2 Copyright (c) Steve Scherf et al.
# Submitted via: CDex 1.51
#
DISCID=700ba909
DTITLE=Nuevo intérprete - SONIDOS DE LA NATURALEZA
DYEAR=1900
DGENRE=New Age
TTITLE0=Agua. Ecos del mar
TTITLE1=Agua. Olas
TTITLE2=Aire. Mariposa azul
TTITLE3=Aire. Pequeños Trinos
TTITLE4=Fuego. Abismos y pasiones
TTITLE5=Fuego. Crepitar
TTITLE6=Fusión. El paso del día
TTITLE7=Tierra. Danza del bosque de cristal
TTITLE8=Tierra. Voces
EXTD=
EXTT0=
EXTT1=
EXTT2=
EXTT3=
EXTT4=
EXTT5=
EXTT6=
EXTT7=
EXTT8=
PLAYORDER=
